<svg width="800" height="106" viewBox="0 0 800 106" fill="none" xmlns="http://www.w3.org/2000/svg">
<path d="M683.459 42.2357V105.099H703.552V63.1902H777.036V105.099H797.13V42.2357H683.459ZM701.256 21.8554H778.759C789.666 19.8461 797.417 10.0865 799.713 0.900969H680.302C682.598 10.0865 690.635 19.559 701.256 21.8554ZM622.318 105.099C632.365 100.793 637.819 93.3301 640.115 84.7187H549.695V1.18802H529.315V105.099H622.318ZM378.615 21.5684H450.377C461.285 18.4108 470.183 10.0865 472.48 1.18802H358.809V62.6161H451.812V84.1446H378.902C367.42 87.3021 357.661 95.0524 352.781 105.099H471.905V42.2357H378.902L378.615 21.5684ZM201.794 21.8554H279.297C290.205 19.8461 298.242 10.0865 300.251 0.900969H180.553C182.849 10.0865 190.886 19.559 201.794 21.8554ZM201.794 62.9031H279.297C290.205 60.8938 298.242 51.1342 300.251 41.9487H180.553C182.849 51.1342 190.886 60.6067 201.794 62.9031ZM201.794 105.099H279.297C290.205 103.09 298.242 93.3301 300.251 84.1446H180.553C182.849 93.3301 190.886 103.09 201.794 105.099Z" fill="black"/>
<path d="M0 1.18802C2.29638 10.3735 10.3337 19.559 20.9544 21.8554H53.6778L55.4001 22.4295V104.812H75.7804V22.4295L77.5027 21.8554H110.226C121.134 18.9849 128.884 10.3735 131.18 1.18802V0.90097L0 1.18802Z" fill="black"/>
</svg>
